<svg xmlns="http://www.w3.org/2000/svg" viewBox="0 0 141.42 141.42"><defs><style>.cls-1{fill:#4521aa;}.cls-2{fill:#f3f3f5;}</style></defs><g id="Layer_2" data-name="Layer 2"><g id="Layer_1-2" data-name="Layer 1"><polygon class="cls-1" points="65.27 5.44 45.33 25.38 25.38 45.33 5.44 65.27 0 70.71 5.44 76.15 45.33 116.04 50.05 120.76 50.05 120.75 65.27 135.98 70.71 141.42 76.15 135.98 116.04 96.09 129.17 82.96 135.98 76.15 141.42 70.71 135.98 65.27 116.04 45.33 76.15 5.44 70.71 0 65.27 5.44"/><path class="cls-2" d="M45.72,86.44a6.85,6.85,0,0,1,1.36.06,20.67,20.67,0,0,0,13.31-4l.22-.19a3,3,0,0,0-1.15-.22,10.2,10.2,0,0,1-8-6.52c-.22-.53-.18-.58.4-.5a10.15,10.15,0,0,0,3.82-.21,10.22,10.22,0,0,1-4.14-2,10.08,10.08,0,0,1-3.81-7.12c0-.21-.05-.42-.07-.63,0-.39.11-.47.46-.29a9.35,9.35,0,0,0,2.76.92c.37.07.74.11,1.15.16,0-.22-.2-.27-.31-.36a10.1,10.1,0,0,1-3.9-7.22,10,10,0,0,1,1.06-5.53c.31-.61.32-.62.76-.1a28.8,28.8,0,0,0,7.4,6.24,28.36,28.36,0,0,0,10.86,3.76q.9.12,1.8.18c.52,0,.58-.05.5-.54a9.7,9.7,0,0,1,.86-6.09,10.32,10.32,0,0,1,16.49-3,.78.78,0,0,0,.79.2,20.72,20.72,0,0,0,5.59-2.14.62.62,0,0,1,.48-.13,10.33,10.33,0,0,1-4.25,5.51,20.61,20.61,0,0,0,5.48-1.51c.12.22,0,.3-.09.4A19.65,19.65,0,0,1,91.3,60a1.33,1.33,0,0,0-.58,1.23,29.56,29.56,0,0,1-6.56,19.12A27.26,27.26,0,0,1,66.24,90.74a29.39,29.39,0,0,1-18.73-3.19,19.59,19.59,0,0,0-1.79-1Z"/></g></g></svg>