<svg xmlns="http://www.w3.org/2000/svg" viewBox="0 0 502.07 131.79"><defs><style>.cls-1,.cls-4{fill:#ff4a4f;}.cls-1,.cls-3{opacity:0.5;}.cls-2{fill:#f3f3f5;}</style></defs><g id="Layer_2" data-name="Layer 2"><g id="Layer_3" data-name="Layer 3"><polygon class="cls-1" points="396 0.87 0 0 105.93 106.93 502.07 106.93 396 0.87"/><path class="cls-2" d="M118.16,61.11l1-1.64a5.91,5.91,0,0,0,3.1.8c1,0,1.69-.42,1.69-1.08s-.76-1-1.85-1.3l-.89-.24c-1.82-.48-3.07-1.18-3.07-2.88,0-2.14,1.68-3.56,4.25-3.56a7.13,7.13,0,0,1,4.06,1.06l-1.14,1.78a5.53,5.53,0,0,0-2.74-.7c-1,0-1.67.36-1.67,1s.69.94,1.63,1.18l.9.26c1.84.48,3.3,1.32,3.3,3.22s-1.8,3.4-4.51,3.4A6.17,6.17,0,0,1,118.16,61.11Z"/><path class="cls-2" d="M137.85,55.41v6.78h-2.62l-.06-1.54a3.87,3.87,0,0,1-3.29,1.74c-2.24,0-3.74-1.34-3.74-3.34s1.84-3.44,4.6-3.44a12.66,12.66,0,0,1,2.39.24v-.2c0-1.44-1-2.3-2.6-2.3a3.82,3.82,0,0,0-2.53.86l-1.18-1.6a6.57,6.57,0,0,1,4.41-1.4C136,51.21,137.85,52.87,137.85,55.41Zm-2.72,2.28a10.86,10.86,0,0,0-2-.22c-1.28,0-2.09.6-2.09,1.52s.58,1.46,1.67,1.46A2.55,2.55,0,0,0,135.13,57.69Z"/><path class="cls-2" d="M151,55.41v6.78h-2.72V55.85a2.53,2.53,0,0,0-5.05,0v6.34h-2.72V51.41h2.63l0,1.36a4.38,4.38,0,0,1,3.52-1.56A4,4,0,0,1,151,55.41Z"/><path class="cls-2" d="M164.45,51.41v9.76c0,3.4-2.54,5.62-6.38,5.62a8.05,8.05,0,0,1-4.81-1.36l.6-2.14A7.14,7.14,0,0,0,158,64.45c2.24,0,3.74-1.3,3.74-3.3v-.52a4.1,4.1,0,0,1-3.58,1.76c-2.93,0-5.17-2.26-5.17-5.64s2.24-5.54,5.17-5.54A4.1,4.1,0,0,1,161.77,53l.06-1.62Zm-2.72,5.38a3,3,0,1,0-5.93,0,3,3,0,1,0,5.93,0Z"/><path class="cls-2" d="M166.68,61.11l1-1.64a5.89,5.89,0,0,0,3.1.8c1,0,1.69-.42,1.69-1.08s-.76-1-1.85-1.3l-.9-.24c-1.82-.48-3.06-1.18-3.06-2.88,0-2.14,1.68-3.56,4.24-3.56A7.17,7.17,0,0,1,175,52.27l-1.14,1.78a5.53,5.53,0,0,0-2.74-.7c-1,0-1.67.36-1.67,1s.68.94,1.63,1.18l.89.26c1.85.48,3.31,1.32,3.31,3.22s-1.8,3.4-4.51,3.4A6.15,6.15,0,0,1,166.68,61.11Z"/><path class="cls-2" d="M177,60.61a1.78,1.78,0,1,1,1.78,1.78A1.78,1.78,0,0,1,177,60.61Z"/><path class="cls-2" d="M182.16,56.79c0-3.34,2.32-5.58,5.8-5.58a5.94,5.94,0,0,1,3.71,1.24l-1.55,1.84a3,3,0,0,0-2.12-.76,3,3,0,0,0-3,3.26A3,3,0,0,0,188,60.05a3.18,3.18,0,0,0,2.44-1l1.54,1.8a5.67,5.67,0,0,1-4.1,1.5A5.36,5.36,0,0,1,182.16,56.79Z"/><path class="cls-2" d="M192.78,56.79c0-3.34,2.32-5.58,5.79-5.58s5.76,2.24,5.76,5.58a5.38,5.38,0,0,1-5.76,5.6C195.1,62.39,192.78,60.15,192.78,56.79Zm8.73,0a3,3,0,1,0-5.91,0,3,3,0,1,0,5.91,0Z"/><path class="cls-2" d="M217,55.41v6.78h-2.72V55.85a2.53,2.53,0,0,0-5,0v6.34h-2.72V51.41h2.62l0,1.36a4.4,4.4,0,0,1,3.53-1.56A4,4,0,0,1,217,55.41Z"/><path class="cls-2" d="M226.27,59.69v2.2a7.27,7.27,0,0,1-2.75.5A3.18,3.18,0,0,1,220.2,59V53.63h-1.78V51.41h1.78V48.25h2.72v3.16h3.19v2.22h-3.19v4.8a1.47,1.47,0,0,0,1.49,1.62A4.73,4.73,0,0,0,226.27,59.69Z"/><path class="cls-2" d="M237,55.41v6.78h-2.63l-.06-1.54A3.85,3.85,0,0,1,231,62.39c-2.24,0-3.74-1.34-3.74-3.34s1.84-3.44,4.6-3.44a12.63,12.63,0,0,1,2.38.24v-.2c0-1.44-1-2.3-2.6-2.3a3.81,3.81,0,0,0-2.52.86L228,52.61a6.56,6.56,0,0,1,4.4-1.4C235.12,51.21,237,52.87,237,55.41Zm-2.73,2.28a10.76,10.76,0,0,0-2-.22c-1.28,0-2.1.6-2.1,1.52s.58,1.46,1.68,1.46A2.55,2.55,0,0,0,234.26,57.69Z"/><path class="cls-2" d="M239,56.79c0-3.34,2.32-5.58,5.8-5.58a6,6,0,0,1,3.71,1.24L247,54.29a3.06,3.06,0,0,0-2.12-.76,3,3,0,0,0-3,3.26,3,3,0,0,0,3,3.26,3.2,3.2,0,0,0,2.45-1l1.54,1.8a5.71,5.71,0,0,1-4.11,1.5A5.36,5.36,0,0,1,239,56.79Z"/><path class="cls-2" d="M257.4,59.69v2.2a7.26,7.26,0,0,1-2.74.5,3.18,3.18,0,0,1-3.32-3.4V53.63h-1.78V51.41h1.78V48.25h2.72v3.16h3.18v2.22h-3.18v4.8a1.47,1.47,0,0,0,1.48,1.62A4.73,4.73,0,0,0,257.4,59.69Z"/><path class="cls-2" d="M273.59,52.57v5.22a1.19,1.19,0,0,0,1.18,1.34c1.16,0,1.9-1.48,1.9-3.4,0-3.82-2.92-6.22-7.22-6.22-4.81,0-7.91,3-7.91,7.52s3,7.42,7.91,7.42a24.27,24.27,0,0,0,5.46-.68l.8,2.12a24.42,24.42,0,0,1-6.36.9c-6.51,0-10.63-3.94-10.63-9.8s4.22-9.8,10.73-9.8c5.94,0,9.94,3.24,9.94,8.36,0,3.44-1.84,5.9-4.58,5.9a3.35,3.35,0,0,1-3.16-1.86,3.56,3.56,0,0,1-3.29,1.88A4.21,4.21,0,0,1,264.1,57a4.24,4.24,0,0,1,4.18-4.56,3.18,3.18,0,0,1,2.65,1.24l0-1.08ZM270.87,57a2,2,0,1,0-2,2.18A2,2,0,0,0,270.87,57Z"/><path class="cls-2" d="M292.59,51.41v9.76c0,3.4-2.55,5.62-6.39,5.62a8,8,0,0,1-4.8-1.36l.6-2.14a7.09,7.09,0,0,0,4.12,1.16c2.24,0,3.74-1.3,3.74-3.3v-.52a4.1,4.1,0,0,1-3.58,1.76c-2.92,0-5.16-2.26-5.16-5.64s2.24-5.54,5.16-5.54A4.13,4.13,0,0,1,289.91,53l0-1.62Zm-2.73,5.38a3,3,0,1,0-5.92,0c0,2,1.18,3.28,3,3.28A3,3,0,0,0,289.86,56.79Z"/><path class="cls-2" d="M312.33,55.41v6.78h-2.72V55.85a2.22,2.22,0,1,0-4.43,0v6.34h-2.72V55.85a2.21,2.21,0,1,0-4.42,0v6.34h-2.72V51.41h2.62l0,1.28a3.93,3.93,0,0,1,3.22-1.48,3.81,3.81,0,0,1,3.26,1.62A4.2,4.2,0,0,1,308,51.21,4.06,4.06,0,0,1,312.33,55.41Z"/><path class="cls-2" d="M323.86,55.41v6.78h-2.62l-.06-1.54a3.85,3.85,0,0,1-3.28,1.74c-2.24,0-3.74-1.34-3.74-3.34s1.84-3.44,4.6-3.44a12.63,12.63,0,0,1,2.38.24v-.2c0-1.44-1-2.3-2.6-2.3a3.81,3.81,0,0,0-2.52.86l-1.18-1.6a6.56,6.56,0,0,1,4.4-1.4C322,51.21,323.86,52.87,323.86,55.41Zm-2.72,2.28a10.76,10.76,0,0,0-2-.22c-1.28,0-2.1.6-2.1,1.52s.58,1.46,1.68,1.46A2.55,2.55,0,0,0,321.14,57.69Z"/><path class="cls-2" d="M326.26,48.05a1.57,1.57,0,0,1,1.62-1.62,1.55,1.55,0,0,1,1.6,1.62,1.53,1.53,0,0,1-1.6,1.6A1.55,1.55,0,0,1,326.26,48.05Zm.26,3.36h2.72V62.19h-2.72Z"/><path class="cls-2" d="M332,46.59h2.72v15.6H332Z"/><path class="cls-2" d="M337.08,60.61a1.78,1.78,0,1,1,1.78,1.78A1.78,1.78,0,0,1,337.08,60.61Z"/><path class="cls-2" d="M342.22,56.79c0-3.34,2.32-5.58,5.8-5.58a5.93,5.93,0,0,1,3.7,1.24l-1.54,1.84a3.08,3.08,0,0,0-2.12-.76,3,3,0,0,0-3,3.26,3,3,0,0,0,3,3.26,3.18,3.18,0,0,0,2.44-1l1.54,1.8a5.67,5.67,0,0,1-4.1,1.5A5.36,5.36,0,0,1,342.22,56.79Z"/><path class="cls-2" d="M352.84,56.79c0-3.34,2.32-5.58,5.78-5.58s5.76,2.24,5.76,5.58a5.38,5.38,0,0,1-5.76,5.6C355.16,62.39,352.84,60.15,352.84,56.79Zm8.72,0a3,3,0,1,0-5.9,0,3,3,0,1,0,5.9,0Z"/><path class="cls-2" d="M383.53,55.41v6.78h-2.72V55.85a2.22,2.22,0,1,0-4.43,0v6.34h-2.72V55.85a2.21,2.21,0,1,0-4.42,0v6.34h-2.72V51.41h2.62l0,1.28a3.93,3.93,0,0,1,3.22-1.48,3.81,3.81,0,0,1,3.26,1.62,4.19,4.19,0,0,1,3.48-1.62A4.06,4.06,0,0,1,383.53,55.41Z"/><g class="cls-3"><path class="cls-4" d="M107.05,121.93a5.06,5.06,0,0,1,5.28-5.44,5.14,5.14,0,0,1,3.34,1.12l-.58.68a4.16,4.16,0,0,0-2.78-1c-2.54,0-4.24,1.84-4.24,4.62s1.7,4.6,4.28,4.6a4.26,4.26,0,0,0,3.06-1.2l.56.66a5.12,5.12,0,0,1-3.72,1.38C109.13,127.39,107.05,125.21,107.05,121.93Z"/><path class="cls-4" d="M118.45,111.59h1v15.6h-1Z"/><path class="cls-4" d="M122.71,113a.73.73,0,0,1,1.46,0,.73.73,0,1,1-1.46,0Zm.26,3.74h1v10.5h-1Z"/><path class="cls-4" d="M126.71,121.93a5.06,5.06,0,0,1,5.28-5.44,5.14,5.14,0,0,1,3.34,1.12l-.58.68a4.16,4.16,0,0,0-2.78-1c-2.54,0-4.24,1.84-4.24,4.62s1.7,4.6,4.28,4.6a4.26,4.26,0,0,0,3.06-1.2l.56.66a5.12,5.12,0,0,1-3.72,1.38C128.79,127.39,126.71,125.21,126.71,121.93Z"/><path class="cls-4" d="M141.61,122.09H139v5.1h-1v-15.6h1v9.68h2.62l4.22-4.58h1.24l-4.66,5,4.9,5.5h-1.24Z"/><path class="cls-4" d="M159.59,126.17v.8a6.07,6.07,0,0,1-2.48.42,2.57,2.57,0,0,1-2.7-2.74v-7.14h-1.88v-.82h1.88v-3.08h1v3.08h4.06v.82h-4.06v7a2,2,0,0,0,2,2.08A6.37,6.37,0,0,0,159.59,126.17Z"/><path class="cls-4" d="M160.67,122c0-3.28,2.1-5.46,5.26-5.46s5.24,2.18,5.24,5.46-2.1,5.44-5.24,5.44S160.67,125.21,160.67,122Zm9.5,0c0-2.78-1.7-4.62-4.24-4.62s-4.24,1.84-4.24,4.62,1.68,4.6,4.24,4.6S170.17,124.71,170.17,122Z"/><path class="cls-4" d="M178.65,121.93a5.06,5.06,0,0,1,5.28-5.44,5.14,5.14,0,0,1,3.34,1.12l-.58.68a4.16,4.16,0,0,0-2.78-1c-2.54,0-4.24,1.84-4.24,4.62s1.7,4.6,4.28,4.6a4.26,4.26,0,0,0,3.06-1.2l.56.66a5.12,5.12,0,0,1-3.72,1.38C180.73,127.39,178.65,125.21,178.65,121.93Z"/><path class="cls-4" d="M189,122c0-3.28,2.1-5.46,5.26-5.46s5.24,2.18,5.24,5.46-2.1,5.44-5.24,5.44S189,125.21,189,122Zm9.5,0c0-2.78-1.7-4.62-4.24-4.62S190,119.17,190,122s1.68,4.6,4.24,4.6S198.47,124.71,198.47,122Z"/><path class="cls-4" d="M212.67,121.91c0,3.3-2.06,5.48-5,5.48a4.45,4.45,0,0,1-4.46-2.84v7h-1V116.69h.94l0,2.48v.16a4.45,4.45,0,0,1,4.46-2.84C210.61,116.49,212.67,118.67,212.67,121.91Zm-1,0c0-2.76-1.7-4.6-4.26-4.6s-4.24,1.84-4.24,4.62,1.7,4.6,4.24,4.6S211.67,124.71,211.67,121.93Z"/><path class="cls-4" d="M214.73,131.57l.12-.8a2,2,0,0,0,.88.18c.92,0,1.3-.62,1.74-1.52l1.08-2.34-4.8-10.4h1.08l4.24,9.34,4.14-9.34h1.08l-5.88,12.86c-.6,1.36-1.16,2.24-2.52,2.24A2.93,2.93,0,0,1,214.73,131.57Z"/><path class="cls-4" d="M236.49,126.17v.8a6.07,6.07,0,0,1-2.48.42,2.57,2.57,0,0,1-2.7-2.74v-7.14h-1.88v-.82h1.88v-3.08h1v3.08h4.06v.82h-4.06v7a2,2,0,0,0,2,2.08A6.37,6.37,0,0,0,236.49,126.17Z"/><path class="cls-4" d="M237.57,122c0-3.28,2.1-5.46,5.26-5.46s5.24,2.18,5.24,5.46-2.1,5.44-5.24,5.44S237.57,125.21,237.57,122Zm9.5,0c0-2.78-1.7-4.62-4.24-4.62s-4.24,1.84-4.24,4.62,1.68,4.6,4.24,4.6S247.07,124.71,247.07,122Z"/><path class="cls-4" d="M255.55,121.93a5.06,5.06,0,0,1,5.28-5.44,5.14,5.14,0,0,1,3.34,1.12l-.58.68a4.16,4.16,0,0,0-2.78-1c-2.54,0-4.24,1.84-4.24,4.62s1.7,4.6,4.28,4.6a4.26,4.26,0,0,0,3.06-1.2l.56.66a5.12,5.12,0,0,1-3.72,1.38C257.63,127.39,255.55,125.21,255.55,121.93Z"/><path class="cls-4" d="M267,111.59h1v15.6h-1Z"/><path class="cls-4" d="M271.21,113a.73.73,0,0,1,1.46,0,.73.73,0,1,1-1.46,0Zm.26,3.74h1v10.5h-1Z"/><path class="cls-4" d="M286.37,121.91c0,3.3-2.06,5.48-5,5.48a4.45,4.45,0,0,1-4.46-2.84v7h-1V116.69h.94l0,2.48v.16a4.45,4.45,0,0,1,4.46-2.84C284.31,116.49,286.37,118.67,286.37,121.91Zm-1,0c0-2.76-1.7-4.6-4.26-4.6s-4.24,1.84-4.24,4.62,1.7,4.6,4.24,4.6S285.37,124.71,285.37,121.93Z"/><path class="cls-4" d="M299.57,122c0,3.24-2.06,5.42-5,5.42a4.46,4.46,0,0,1-4.46-2.82v.14l0,2.48h-.94v-15.6h1v7.74a4.45,4.45,0,0,1,4.46-2.84C297.51,116.49,299.57,118.69,299.57,122Zm-1,0c0-2.78-1.7-4.64-4.26-4.64s-4.24,1.86-4.24,4.62,1.7,4.6,4.24,4.6S298.57,124.73,298.57,122Z"/><path class="cls-4" d="M301.61,122c0-3.28,2.1-5.46,5.26-5.46s5.24,2.18,5.24,5.46-2.1,5.44-5.24,5.44S301.61,125.21,301.61,122Zm9.5,0c0-2.78-1.7-4.62-4.24-4.62s-4.24,1.84-4.24,4.62,1.68,4.6,4.24,4.6S311.11,124.71,311.11,122Z"/><path class="cls-4" d="M322.45,120.57v6.62h-.94l0-2.32v-.22a4.46,4.46,0,0,1-4.18,2.74c-2,0-3.38-1.18-3.38-3s1.68-3.14,4.22-3.14a13.41,13.41,0,0,1,3.34.42v-.94a3.2,3.2,0,0,0-3.36-3.46,3.87,3.87,0,0,0-3.06,1.3l-.46-.62a4.81,4.81,0,0,1,3.7-1.48A3.87,3.87,0,0,1,322.45,120.57Zm-1,1.84a12.6,12.6,0,0,0-3.22-.42c-2,0-3.32,1-3.32,2.4s1,2.26,2.62,2.26A4.06,4.06,0,0,0,321.49,122.41Z"/><path class="cls-4" d="M331,116.49l-.08.88c-2.7,0-4.2,1.38-4.2,3.56v6.26h-1v-10.5h.94l0,2C327.41,117.19,328.87,116.49,331,116.49Z"/><path class="cls-4" d="M341.85,111.59v15.6h-.94l0-2.48v-.14a4.46,4.46,0,0,1-4.46,2.82c-3,0-5-2.18-5-5.42s2.06-5.48,5-5.48a4.45,4.45,0,0,1,4.46,2.84v-7.74Zm-1,10.36c0-2.76-1.7-4.62-4.24-4.62s-4.24,1.86-4.24,4.64,1.68,4.58,4.24,4.58S340.89,124.71,340.89,122Z"/></g></g></g></svg>