<svg xmlns="http://www.w3.org/2000/svg" viewBox="0 0 141.42 141.42"><defs><style>.cls-1{fill:#ff4a4f;}.cls-2{fill:#f3f3f5;}</style></defs><g id="Layer_2" data-name="Layer 2"><g id="Layer_1-2" data-name="Layer 1"><rect class="cls-1" x="20.71" y="20.71" width="100" height="100" transform="translate(-29.29 70.71) rotate(-45)"/><path class="cls-2" d="M74,42.71c15.11,0,24.92,11.07,24.92,24.2,0,13.29-8.78,19.54-15.66,19.54-4.75,0-7.2-2.85-7.67-5.85l-.08-.48a14.5,14.5,0,0,1-11.39,6.33c-7.68,0-12.26-5.61-12.26-13.29,0-10.6,8.7-19.38,17.87-19.38,4.75,0,8.23,2.3,9.89,5.3l.87-4.19h8.94l-4,19.3a15.39,15.39,0,0,0-.23,1.9c0,2.45,1.26,3.56,2.92,3.56,3.09,0,7.44-3.72,7.44-12.74,0-12.49-8.54-21.11-21.83-21.11-15,0-28,13.13-28,27.92,0,12.41,9.49,22,22.3,22a26.86,26.86,0,0,0,14.48-4.36l1.66,2.38a30.49,30.49,0,0,1-16.45,5c-14.4,0-25.08-10.84-25.08-24.84C42.55,57,57.5,42.71,74,42.71ZM78.3,64.94a7.11,7.11,0,0,0-6.4-4C65.57,60.9,61,66.6,61,72.37c0,4.11,2.53,7,6.57,7s7-2.77,8.78-5.14Z"/></g></g></svg>