<svg xmlns="http://www.w3.org/2000/svg" viewBox="0 0 502.07 131.79"><defs><style>.cls-1,.cls-4{fill:#4521aa;}.cls-1,.cls-3{opacity:0.5;}.cls-2{fill:#f3f3f5;}</style></defs><g id="Layer_2" data-name="Layer 2"><g id="Layer_3" data-name="Layer 3"><polygon class="cls-1" points="396 0.87 0 0 105.93 106.93 502.07 106.93 396 0.87"/><path class="cls-2" d="M188.62,47.76v7.83a1.79,1.79,0,0,0,1.77,2c1.74,0,2.85-2.22,2.85-5.1,0-5.73-4.38-9.33-10.83-9.33-7.2,0-11.85,4.53-11.85,11.28s4.53,11.13,11.85,11.13a36.4,36.4,0,0,0,8.19-1l1.2,3.18a36.63,36.63,0,0,1-9.54,1.35c-9.75,0-15.93-5.91-15.93-14.7s6.33-14.7,16.08-14.7c8.91,0,14.91,4.86,14.91,12.54,0,5.16-2.76,8.85-6.87,8.85a5,5,0,0,1-4.74-2.79,5.34,5.34,0,0,1-4.92,2.82c-3.66,0-6.39-2.7-6.39-6.75s2.79-6.84,6.27-6.84a4.76,4.76,0,0,1,4,1.86l.06-1.62Zm-4.08,6.57c0-2-1.17-3.3-3-3.3s-2.94,1.32-2.94,3.3,1.17,3.27,2.94,3.27A3,3,0,0,0,184.54,54.33Z"/><path class="cls-2" d="M200.08,60.57l1.53-2.46a8.83,8.83,0,0,0,4.65,1.2c1.5,0,2.52-.63,2.52-1.62s-1.14-1.53-2.76-1.95l-1.35-.36c-2.73-.72-4.59-1.77-4.59-4.32,0-3.21,2.52-5.34,6.36-5.34a10.7,10.7,0,0,1,6.09,1.59L210.82,50a8.3,8.3,0,0,0-4.11-1c-1.47,0-2.49.54-2.49,1.47s1,1.41,2.43,1.77l1.35.39c2.76.72,4.95,2,4.95,4.83,0,3.06-2.7,5.1-6.75,5.1A9.23,9.23,0,0,1,200.08,60.57Z"/><path class="cls-2" d="M229.6,52V62.19h-3.93l-.09-2.31a5.78,5.78,0,0,1-4.92,2.61c-3.36,0-5.61-2-5.61-5s2.76-5.16,6.9-5.16a19,19,0,0,1,3.57.36v-.3c0-2.16-1.44-3.45-3.9-3.45a5.71,5.71,0,0,0-3.78,1.29l-1.77-2.4a9.84,9.84,0,0,1,6.6-2.1C226.81,45.72,229.6,48.21,229.6,52Zm-4.08,3.42a16.13,16.13,0,0,0-3.06-.33c-1.92,0-3.15.9-3.15,2.28s.87,2.19,2.52,2.19C223.72,59.58,225.49,58.08,225.52,55.44Z"/><path class="cls-2" d="M249.28,52V62.19H245.2V52.68c0-2.1-1.5-3.48-3.78-3.48s-3.78,1.38-3.78,3.48v9.51h-4.08V46h3.93l.06,2a6.59,6.59,0,0,1,5.28-2.34C246.7,45.72,249.28,48.24,249.28,52Z"/><path class="cls-2" d="M269.5,46V60.66c0,5.1-3.81,8.43-9.57,8.43a12,12,0,0,1-7.2-2l.9-3.21a10.64,10.64,0,0,0,6.18,1.74c3.36,0,5.61-1.95,5.61-4.95v-.78a6.16,6.16,0,0,1-5.37,2.64c-4.38,0-7.74-3.39-7.74-8.46s3.36-8.31,7.74-8.31a6.15,6.15,0,0,1,5.43,2.73l.09-2.43Zm-4.08,8.07c0-2.94-1.8-4.89-4.44-4.89s-4.44,1.95-4.44,4.86S258.31,59,261,59,265.42,57,265.42,54.09Z"/><path class="cls-2" d="M272.86,60.57l1.53-2.46a8.83,8.83,0,0,0,4.65,1.2c1.5,0,2.52-.63,2.52-1.62s-1.14-1.53-2.76-1.95l-1.35-.36c-2.73-.72-4.59-1.77-4.59-4.32,0-3.21,2.52-5.34,6.36-5.34a10.7,10.7,0,0,1,6.09,1.59L283.6,50a8.3,8.3,0,0,0-4.11-1c-1.47,0-2.49.54-2.49,1.47s1,1.41,2.43,1.77l1.35.39c2.76.72,5,2,5,4.83,0,3.06-2.7,5.1-6.75,5.1A9.23,9.23,0,0,1,272.86,60.57Z"/><path class="cls-2" d="M287.71,62.19h16.23V65.1H287.71Z"/><path class="cls-2" d="M305.83,54.09c0-5,3.48-8.37,8.7-8.37a8.9,8.9,0,0,1,5.55,1.86l-2.31,2.76a4.62,4.62,0,0,0-3.18-1.14c-2.7,0-4.53,1.95-4.53,4.89s1.8,4.89,4.56,4.89a4.77,4.77,0,0,0,3.66-1.44l2.31,2.7a8.5,8.5,0,0,1-6.15,2.25C309.28,62.49,305.83,59.13,305.83,54.09Z"/><path class="cls-2" d="M321.76,54.09c0-5,3.48-8.37,8.7-8.37A8.9,8.9,0,0,1,336,47.58l-2.31,2.76a4.62,4.62,0,0,0-3.18-1.14c-2.7,0-4.53,1.95-4.53,4.89s1.8,4.89,4.56,4.89a4.77,4.77,0,0,0,3.66-1.44l2.31,2.7a8.5,8.5,0,0,1-6.15,2.25C325.21,62.49,321.76,59.13,321.76,54.09Z"/><g class="cls-3"><path class="cls-4" d="M108.05,121.93a5.06,5.06,0,0,1,5.28-5.44,5.14,5.14,0,0,1,3.34,1.12l-.58.68a4.16,4.16,0,0,0-2.78-1c-2.54,0-4.24,1.84-4.24,4.62s1.7,4.6,4.28,4.6a4.26,4.26,0,0,0,3.06-1.2l.56.66a5.12,5.12,0,0,1-3.72,1.38C110.13,127.39,108.05,125.21,108.05,121.93Z"/><path class="cls-4" d="M119.45,111.59h1v15.6h-1Z"/><path class="cls-4" d="M123.71,113a.73.73,0,0,1,1.46,0,.73.73,0,1,1-1.46,0Zm.26,3.74h1v10.5h-1Z"/><path class="cls-4" d="M127.71,121.93a5.06,5.06,0,0,1,5.28-5.44,5.14,5.14,0,0,1,3.34,1.12l-.58.68a4.16,4.16,0,0,0-2.78-1c-2.54,0-4.24,1.84-4.24,4.62s1.7,4.6,4.28,4.6a4.26,4.26,0,0,0,3.06-1.2l.56.66a5.12,5.12,0,0,1-3.72,1.38C129.79,127.39,127.71,125.21,127.71,121.93Z"/><path class="cls-4" d="M142.61,122.09H140v5.1h-1v-15.6h1v9.68h2.62l4.22-4.58h1.24l-4.66,5,4.9,5.5h-1.24Z"/><path class="cls-4" d="M160.59,126.17v.8a6.07,6.07,0,0,1-2.48.42,2.57,2.57,0,0,1-2.7-2.74v-7.14h-1.88v-.82h1.88v-3.08h1v3.08h4.06v.82h-4.06v7a2,2,0,0,0,2,2.08A6.37,6.37,0,0,0,160.59,126.17Z"/><path class="cls-4" d="M161.67,122c0-3.28,2.1-5.46,5.26-5.46s5.24,2.18,5.24,5.46-2.1,5.44-5.24,5.44S161.67,125.21,161.67,122Zm9.5,0c0-2.78-1.7-4.62-4.24-4.62s-4.24,1.84-4.24,4.62,1.68,4.6,4.24,4.6S171.17,124.71,171.17,122Z"/><path class="cls-4" d="M178.43,116.69h1.08l4.2,9.38,4.2-9.38H189l-4.78,10.5h-1Z"/><path class="cls-4" d="M190.75,113a.73.73,0,0,1,1.46,0,.73.73,0,1,1-1.46,0Zm.26,3.74h1v10.5h-1Z"/><path class="cls-4" d="M194.83,126.33l.44-.62a4.82,4.82,0,0,0,3,.9c1.68,0,2.8-.84,2.8-2.08s-1-1.76-2.36-2.14l-1.22-.36c-1.6-.46-2.72-1.1-2.72-2.66,0-1.72,1.42-2.88,3.52-2.88a6.22,6.22,0,0,1,3.44.9l-.44.7a5.15,5.15,0,0,0-2.92-.8c-1.54,0-2.6.76-2.6,2s.9,1.62,2.1,2l1.24.36c1.5.44,3,1.22,3,2.9s-1.46,2.92-3.8,2.92A5.11,5.11,0,0,1,194.83,126.33Z"/><path class="cls-4" d="M204.59,113a.73.73,0,0,1,1.46,0,.73.73,0,1,1-1.46,0Zm.26,3.74h1v10.5h-1Z"/><path class="cls-4" d="M215,126.17v.8a6.07,6.07,0,0,1-2.48.42,2.57,2.57,0,0,1-2.7-2.74v-7.14h-1.88v-.82h1.88v-3.08h1v3.08h4.06v.82h-4.06v7a2,2,0,0,0,2,2.08A6.37,6.37,0,0,0,215,126.17Z"/><path class="cls-4" d="M222.67,112.39h1v14.8h-1Z"/><path class="cls-4" d="M236.83,120.57v6.62h-1v-6.4a3.69,3.69,0,0,0-7.36,0v6.4h-1v-10.5h.94l0,2a4,4,0,0,1,4-2.24C235.07,116.49,236.83,118.11,236.83,120.57Z"/><path class="cls-4" d="M239.51,126.33l.44-.62a4.82,4.82,0,0,0,3,.9c1.68,0,2.8-.84,2.8-2.08s-1-1.76-2.36-2.14l-1.22-.36c-1.6-.46-2.72-1.1-2.72-2.66,0-1.72,1.42-2.88,3.52-2.88a6.22,6.22,0,0,1,3.44.9l-.44.7a5.15,5.15,0,0,0-2.92-.8c-1.54,0-2.6.76-2.6,2s.9,1.62,2.1,2l1.24.36c1.5.44,3,1.22,3,2.9s-1.46,2.92-3.8,2.92A5.11,5.11,0,0,1,239.51,126.33Z"/><path class="cls-4" d="M255.05,126.17v.8a6.07,6.07,0,0,1-2.48.42,2.57,2.57,0,0,1-2.7-2.74v-7.14H248v-.82h1.88v-3.08h1v3.08h4.06v.82h-4.06v7a2,2,0,0,0,2,2.08A6.37,6.37,0,0,0,255.05,126.17Z"/><path class="cls-4" d="M264.53,120.57v6.62h-.94l0-2.32v-.22a4.46,4.46,0,0,1-4.18,2.74c-2,0-3.38-1.18-3.38-3s1.68-3.14,4.22-3.14a13.41,13.41,0,0,1,3.34.42v-.94a3.2,3.2,0,0,0-3.36-3.46,3.87,3.87,0,0,0-3.06,1.3l-.46-.62a4.81,4.81,0,0,1,3.7-1.48A3.87,3.87,0,0,1,264.53,120.57Zm-1,1.84a12.6,12.6,0,0,0-3.22-.42c-2,0-3.32,1-3.32,2.4s1,2.26,2.62,2.26A4.06,4.06,0,0,0,263.57,122.41Z"/><path class="cls-4" d="M277.63,116.69v9.84c0,3.16-2.24,5.26-5.6,5.26a7.19,7.19,0,0,1-4.58-1.4l.22-.78A7.1,7.1,0,0,0,272,131a4.33,4.33,0,0,0,4.66-4.52v-1.88a4.45,4.45,0,0,1-4.46,2.84c-3,0-5-2.18-5-5.48s2.06-5.42,5-5.42a4.45,4.45,0,0,1,4.46,2.84v-.16l0-2.48Zm-1,5.26c0-2.78-1.7-4.62-4.24-4.62s-4.24,1.84-4.24,4.6,1.68,4.62,4.24,4.62S276.67,124.71,276.67,122Z"/><path class="cls-4" d="M286.29,116.49l-.08.88c-2.7,0-4.2,1.38-4.2,3.56v6.26h-1v-10.5H282l0,2C282.69,117.19,284.15,116.49,286.29,116.49Z"/><path class="cls-4" d="M295.51,120.57v6.62h-.94l0-2.32v-.22a4.46,4.46,0,0,1-4.18,2.74c-2,0-3.38-1.18-3.38-3s1.68-3.14,4.22-3.14a13.41,13.41,0,0,1,3.34.42v-.94a3.2,3.2,0,0,0-3.36-3.46,3.87,3.87,0,0,0-3.06,1.3l-.46-.62a4.81,4.81,0,0,1,3.7-1.48A3.87,3.87,0,0,1,295.51,120.57Zm-1,1.84a12.6,12.6,0,0,0-3.22-.42c-2,0-3.32,1-3.32,2.4s1,2.26,2.62,2.26A4.06,4.06,0,0,0,294.55,122.41Z"/><path class="cls-4" d="M314.89,120.57v6.62h-1v-6.4a3.29,3.29,0,1,0-6.58,0v6.4h-1v-6.4a3.3,3.3,0,1,0-6.6,0v6.4h-1v-10.5h.94l0,1.94a3.6,3.6,0,0,1,3.58-2.14,3.79,3.79,0,0,1,3.7,2.42,3.72,3.72,0,0,1,3.72-2.42A3.86,3.86,0,0,1,314.89,120.57Z"/></g></g></g></svg>