<svg xmlns="http://www.w3.org/2000/svg" viewBox="0 0 141.42 141.42"><defs><style>.cls-1{fill:#4521aa;}.cls-2{fill:#f3f3f5;}</style></defs><g id="Layer_2" data-name="Layer 2"><g id="Layer_1-2" data-name="Layer 1"><polygon class="cls-1" points="65.27 5.44 45.33 25.38 25.38 45.33 5.44 65.27 0 70.71 5.44 76.15 45.33 116.04 50.05 120.76 50.05 120.75 65.27 135.98 70.71 141.42 76.15 135.98 116.04 96.09 129.17 82.96 135.98 76.15 141.42 70.71 135.98 65.27 116.04 45.33 76.15 5.44 70.71 0 65.27 5.44"/><path class="cls-2" d="M98.18,56.81V84.67c-.05.28-.11.56-.16.84a15,15,0,0,1-8.34,11.17,16.22,16.22,0,0,1-5,1.49H56.82a15.88,15.88,0,0,1-5.14-1.56c-5.22-2.81-8.23-7.15-8.35-13.09-.17-8.51,0-17,0-25.55a13.67,13.67,0,0,1,.72-4.2A15.3,15.3,0,0,1,58.63,43.25c8.09.06,16.17,0,24.26,0a14,14,0,0,1,2.14.11,15.12,15.12,0,0,1,11.69,8.47A16.48,16.48,0,0,1,98.18,56.81ZM48.28,70.74h0V82.58a13.85,13.85,0,0,0,.13,2.13A10.17,10.17,0,0,0,58,93.2c8.43,0,16.86,0,25.29,0a10,10,0,0,0,1.44-.12,10.15,10.15,0,0,0,8.48-9.6c0-8.43,0-16.86,0-25.29a10,10,0,0,0-.13-1.44,10.14,10.14,0,0,0-9.6-8.48c-8.43,0-16.86,0-25.28,0a9.88,9.88,0,0,0-1.44.13A10.18,10.18,0,0,0,48.29,58C48.25,62.24,48.28,66.49,48.28,70.74Z"/><path class="cls-2" d="M70.8,84.92A14.18,14.18,0,1,1,84.93,70.7,14.19,14.19,0,0,1,70.8,84.92Zm9.14-14.16a9.19,9.19,0,1,0-9.22,9.16A9.17,9.17,0,0,0,79.94,70.76Z"/><path class="cls-2" d="M85.51,59.65a3.6,3.6,0,0,1-3.65-3.57,3.63,3.63,0,1,1,7.25,0A3.61,3.61,0,0,1,85.51,59.65Z"/></g></g></svg>