<svg xmlns="http://www.w3.org/2000/svg" viewBox="0 0 141.42 141.42"><defs><style>.cls-1{fill:#4521aa;}.cls-2{fill:#f3f3f5;}</style></defs><g id="Layer_2" data-name="Layer 2"><g id="Layer_1-2" data-name="Layer 1"><polygon class="cls-1" points="65.27 5.44 45.33 25.38 25.38 45.33 5.44 65.27 0 70.71 5.44 76.15 45.33 116.04 50.05 120.76 50.05 120.76 65.27 135.98 70.71 141.42 76.15 135.98 116.04 96.09 129.17 82.96 135.98 76.15 141.42 70.71 135.98 65.27 116.04 45.33 76.15 5.44 70.71 0 65.27 5.44"/><path class="cls-2" d="M92.43,91.57c0,.69-.22.87-.89.86q-3.63,0-7.26,0c-.65,0-.86-.19-.86-.84,0-4.92,0-9.85,0-14.77a4.87,4.87,0,0,0-2-4.19A4.22,4.22,0,0,0,77,72.07a4.6,4.6,0,0,0-2.84,3.7,11.47,11.47,0,0,0-.09,1.66q0,7,0,14.11c0,.66-.16.9-.86.89q-3.7,0-7.38,0c-.58,0-.76-.18-.76-.75q0-12.93,0-25.85c0-.53.16-.74.71-.73q3.78,0,7.57,0c.54,0,.74.19.72.73,0,.71,0,1.43,0,2.14,0,.21-.08.44.11.61.19,0,.24-.13.33-.24,4-5,10.47-4.91,14.75-.64a10.29,10.29,0,0,1,3.12,7.55C92.43,80.69,92.41,86.13,92.43,91.57Z"/><path class="cls-2" d="M59.78,54.33a5.45,5.45,0,0,1-5.4,5.45A5.36,5.36,0,0,1,49,54.37,5.28,5.28,0,0,1,54.38,49,5.36,5.36,0,0,1,59.78,54.33Z"/><path class="cls-2" d="M58.86,65.84q0,12.93,0,25.84c0,.58-.22.75-.77.75-2.47,0-4.93,0-7.38,0-.65,0-.87-.17-.87-.84,0-4.28,0-8.57,0-12.85s0-8.54,0-12.81c0-.67.22-.84.87-.84q3.67,0,7.38,0C58.65,65.09,58.86,65.26,58.86,65.84Z"/></g></g></svg>