<svg xmlns="http://www.w3.org/2000/svg" viewBox="0 0 502.07 127.39"><defs><style>.cls-1,.cls-3{opacity:0.5;}.cls-2,.cls-3{fill:#4521aa;}.cls-4{fill:#f3f3f5;}</style></defs><g id="Layer_2" data-name="Layer 2"><g id="Layer_3" data-name="Layer 3"><g class="cls-1"><path class="cls-2" d="M108.05,121.93a5.06,5.06,0,0,1,5.28-5.44,5.14,5.14,0,0,1,3.34,1.12l-.58.68a4.16,4.16,0,0,0-2.78-1c-2.54,0-4.24,1.84-4.24,4.62s1.7,4.6,4.28,4.6a4.26,4.26,0,0,0,3.06-1.2l.56.66a5.12,5.12,0,0,1-3.72,1.38C110.13,127.39,108.05,125.21,108.05,121.93Z"/><path class="cls-2" d="M119.45,111.59h1v15.6h-1Z"/><path class="cls-2" d="M123.71,113a.73.73,0,0,1,1.46,0,.73.73,0,1,1-1.46,0Zm.26,3.74h1v10.5h-1Z"/><path class="cls-2" d="M127.71,121.93a5.06,5.06,0,0,1,5.28-5.44,5.14,5.14,0,0,1,3.34,1.12l-.58.68a4.16,4.16,0,0,0-2.78-1c-2.54,0-4.24,1.84-4.24,4.62s1.7,4.6,4.28,4.6a4.26,4.26,0,0,0,3.06-1.2l.56.66a5.12,5.12,0,0,1-3.72,1.38C129.79,127.39,127.71,125.21,127.71,121.93Z"/><path class="cls-2" d="M142.61,122.09H140v5.1h-1v-15.6h1v9.68h2.62l4.22-4.58h1.24l-4.66,5,4.9,5.5h-1.24Z"/><path class="cls-2" d="M160.59,126.17v.8a6.07,6.07,0,0,1-2.48.42,2.57,2.57,0,0,1-2.7-2.74v-7.14h-1.88v-.82h1.88v-3.08h1v3.08h4.06v.82h-4.06v7a2,2,0,0,0,2,2.08A6.37,6.37,0,0,0,160.59,126.17Z"/><path class="cls-2" d="M161.67,122c0-3.28,2.1-5.46,5.26-5.46s5.24,2.18,5.24,5.46-2.1,5.44-5.24,5.44S161.67,125.21,161.67,122Zm9.5,0c0-2.78-1.7-4.62-4.24-4.62s-4.24,1.84-4.24,4.62,1.68,4.6,4.24,4.6S171.17,124.71,171.17,122Z"/><path class="cls-2" d="M178.43,116.69h1.08l4.2,9.38,4.2-9.38H189l-4.78,10.5h-1Z"/><path class="cls-2" d="M190.75,113a.73.73,0,0,1,1.46,0,.73.73,0,1,1-1.46,0Zm.26,3.74h1v10.5h-1Z"/><path class="cls-2" d="M194.83,126.33l.44-.62a4.82,4.82,0,0,0,3,.9c1.68,0,2.8-.84,2.8-2.08s-1-1.76-2.36-2.14l-1.22-.36c-1.6-.46-2.72-1.1-2.72-2.66,0-1.72,1.42-2.88,3.52-2.88a6.22,6.22,0,0,1,3.44.9l-.44.7a5.15,5.15,0,0,0-2.92-.8c-1.54,0-2.6.76-2.6,2s.9,1.62,2.1,2l1.24.36c1.5.44,3,1.22,3,2.9s-1.46,2.92-3.8,2.92A5.11,5.11,0,0,1,194.83,126.33Z"/><path class="cls-2" d="M204.59,113a.73.73,0,0,1,1.46,0,.73.73,0,1,1-1.46,0Zm.26,3.74h1v10.5h-1Z"/><path class="cls-2" d="M215,126.17v.8a6.07,6.07,0,0,1-2.48.42,2.57,2.57,0,0,1-2.7-2.74v-7.14h-1.88v-.82h1.88v-3.08h1v3.08h4.06v.82h-4.06v7a2,2,0,0,0,2,2.08A6.37,6.37,0,0,0,215,126.17Z"/><path class="cls-2" d="M230.87,126.33v.86h-8.2v-14.8h1v13.94Z"/><path class="cls-2" d="M232.65,113a.73.73,0,0,1,1.46,0,.73.73,0,1,1-1.46,0Zm.26,3.74h1v10.5h-1Z"/><path class="cls-2" d="M246.63,120.57v6.62h-1v-6.4a3.69,3.69,0,0,0-7.36,0v6.4h-1v-10.5h.94l0,2a4,4,0,0,1,4-2.24C244.87,116.49,246.63,118.11,246.63,120.57Z"/><path class="cls-2" d="M253.51,122.09h-2.62v5.1h-1v-15.6h1v9.68h2.62l4.22-4.58H259l-4.66,5,4.9,5.5H258Z"/><path class="cls-2" d="M269.63,122.31H261c.12,2.58,1.56,4.3,3.84,4.3a4.66,4.66,0,0,0,3.74-2l.72.46a5.27,5.27,0,0,1-4.44,2.32c-2.94,0-4.9-2.2-4.9-5.48s1.94-5.42,4.86-5.42,4.84,2.14,4.84,5.32Zm-8.68-.72h7.68c-.1-2.62-1.58-4.3-3.84-4.3S261.05,119,261,121.59Z"/><path class="cls-2" d="M282,111.59v15.6h-.94l0-2.48v-.14a4.46,4.46,0,0,1-4.46,2.82c-3,0-5-2.18-5-5.42s2.06-5.48,5-5.48a4.45,4.45,0,0,1,4.46,2.84v-7.74Zm-1,10.36c0-2.76-1.7-4.62-4.24-4.62s-4.24,1.86-4.24,4.64,1.68,4.58,4.24,4.58S281.07,124.71,281.07,122Z"/><path class="cls-2" d="M285.87,112.39h1v14.8h-1Z"/><path class="cls-2" d="M300,120.57v6.62h-1v-6.4a3.69,3.69,0,0,0-7.36,0v6.4h-1v-10.5h.94l0,2a4,4,0,0,1,4-2.24C298.27,116.49,300,118.11,300,120.57Z"/></g><polygon class="cls-3" points="396 0.87 0 0 105.93 106.93 502.07 106.93 396 0.87"/><path class="cls-4" d="M75.72,46.59h2.73v15.6H75.72Z"/><path class="cls-4" d="M81,48.05a1.57,1.57,0,0,1,1.62-1.62,1.55,1.55,0,0,1,1.6,1.62,1.53,1.53,0,0,1-1.6,1.6A1.55,1.55,0,0,1,81,48.05Zm.26,3.36H84V62.19H81.24Z"/><path class="cls-4" d="M97.21,55.41v6.78H94.49V55.85a2.53,2.53,0,0,0-5,0v6.34H86.72V51.41h2.62l0,1.36a4.4,4.4,0,0,1,3.53-1.56A4,4,0,0,1,97.21,55.41Z"/><path class="cls-4" d="M103.46,57.65h-.92v4.54H99.82V46.59h2.72v8.82h.94l3.57-4h3.44l-4.79,5.1,5,5.68h-3.44Z"/><path class="cls-4" d="M121.41,57.77H113.6a2.46,2.46,0,0,0,2.58,2.48A3.33,3.33,0,0,0,118.82,59L120.93,60a5.53,5.53,0,0,1-4.71,2.36,5.2,5.2,0,0,1-5.5-5.52c0-3.4,2.14-5.66,5.38-5.66a5.11,5.11,0,0,1,5.39,5.42A9.87,9.87,0,0,1,121.41,57.77Zm-7.81-1.84h5c-.19-1.64-1.05-2.58-2.52-2.58S113.82,54.29,113.6,55.93Z"/><path class="cls-4" d="M134.41,46.59v15.6h-2.63l-.05-1.62a4.13,4.13,0,0,1-3.63,1.82c-2.92,0-5.16-2.22-5.16-5.54s2.24-5.64,5.16-5.64A4.13,4.13,0,0,1,131.69,53V46.59Zm-2.72,10.2a3,3,0,1,0-5.93,0,3,3,0,1,0,5.93,0Z"/><path class="cls-4" d="M136.92,48.05a1.57,1.57,0,0,1,1.62-1.62,1.55,1.55,0,0,1,1.6,1.62,1.53,1.53,0,0,1-1.6,1.6A1.55,1.55,0,0,1,136.92,48.05Zm.26,3.36h2.72V62.19h-2.72Z"/><path class="cls-4" d="M153.15,55.41v6.78h-2.73V55.85a2.53,2.53,0,0,0-5,0v6.34h-2.72V51.41h2.62l0,1.36a4.39,4.39,0,0,1,3.52-1.56A4,4,0,0,1,153.15,55.41Z"/><path class="cls-4" d="M155.32,60.61a1.78,1.78,0,1,1,1.78,1.78A1.78,1.78,0,0,1,155.32,60.61Z"/><path class="cls-4" d="M160.46,56.79c0-3.34,2.32-5.58,5.8-5.58a5.93,5.93,0,0,1,3.7,1.24l-1.54,1.84a3.08,3.08,0,0,0-2.12-.76,3,3,0,0,0-3,3.26,3,3,0,0,0,3,3.26,3.18,3.18,0,0,0,2.44-1l1.54,1.8a5.67,5.67,0,0,1-4.1,1.5A5.36,5.36,0,0,1,160.46,56.79Z"/><path class="cls-4" d="M171.08,56.79c0-3.34,2.32-5.58,5.78-5.58s5.77,2.24,5.77,5.58a5.38,5.38,0,0,1-5.77,5.6C173.4,62.39,171.08,60.15,171.08,56.79Zm8.72,0a3,3,0,1,0-5.9,0,3,3,0,1,0,5.9,0Z"/><path class="cls-4" d="M201.77,55.41v6.78h-2.72V55.85a2.22,2.22,0,1,0-4.43,0v6.34H191.9V55.85a2.21,2.21,0,1,0-4.42,0v6.34h-2.72V51.41h2.62l0,1.28a3.93,3.93,0,0,1,3.22-1.48,3.84,3.84,0,0,1,3.27,1.62,4.18,4.18,0,0,1,3.48-1.62A4.06,4.06,0,0,1,201.77,55.41Z"/><path class="cls-4" d="M208.54,46.59h2.74l-4.78,17.6h-2.74Z"/><path class="cls-4" d="M213.16,48.05a1.57,1.57,0,0,1,1.62-1.62,1.55,1.55,0,0,1,1.6,1.62,1.53,1.53,0,0,1-1.6,1.6A1.55,1.55,0,0,1,213.16,48.05Zm.26,3.36h2.72V62.19h-2.72Z"/><path class="cls-4" d="M229.38,55.41v6.78h-2.72V55.85a2.53,2.53,0,0,0-5,0v6.34H218.9V51.41h2.62l0,1.36a4.39,4.39,0,0,1,3.52-1.56A4,4,0,0,1,229.38,55.41Z"/><path class="cls-4" d="M236.14,46.59h2.74l-4.78,17.6h-2.74Z"/><path class="cls-4" d="M240,61.11l1-1.64a5.89,5.89,0,0,0,3.1.8c1,0,1.68-.42,1.68-1.08s-.76-1-1.84-1.3l-.9-.24c-1.82-.48-3.06-1.18-3.06-2.88,0-2.14,1.68-3.56,4.24-3.56a7.13,7.13,0,0,1,4.06,1.06l-1.14,1.78a5.53,5.53,0,0,0-2.74-.7c-1,0-1.66.36-1.66,1s.68.94,1.62,1.18l.9.26c1.84.48,3.3,1.32,3.3,3.22s-1.8,3.4-4.5,3.4A6.15,6.15,0,0,1,240,61.11Z"/><path class="cls-4" d="M259.68,55.41v6.78h-2.62L257,60.65a3.85,3.85,0,0,1-3.28,1.74c-2.24,0-3.74-1.34-3.74-3.34s1.84-3.44,4.6-3.44a12.63,12.63,0,0,1,2.38.24v-.2c0-1.44-1-2.3-2.6-2.3a3.81,3.81,0,0,0-2.52.86l-1.18-1.6a6.56,6.56,0,0,1,4.4-1.4C257.82,51.21,259.68,52.87,259.68,55.41ZM257,57.69a10.76,10.76,0,0,0-2-.22c-1.28,0-2.1.6-2.1,1.52s.58,1.46,1.68,1.46A2.55,2.55,0,0,0,257,57.69Z"/><path class="cls-4" d="M272.8,55.41v6.78h-2.72V55.85a2.53,2.53,0,0,0-5,0v6.34h-2.72V51.41h2.62l0,1.36a4.39,4.39,0,0,1,3.52-1.56A4,4,0,0,1,272.8,55.41Z"/><path class="cls-4" d="M286.28,51.41v9.76c0,3.4-2.54,5.62-6.38,5.62a8,8,0,0,1-4.8-1.36l.6-2.14a7.09,7.09,0,0,0,4.12,1.16c2.24,0,3.74-1.3,3.74-3.3v-.52A4.1,4.1,0,0,1,280,62.39c-2.92,0-5.16-2.26-5.16-5.64s2.24-5.54,5.16-5.54A4.1,4.1,0,0,1,283.6,53l.06-1.62Zm-2.72,5.38a3,3,0,1,0-5.92,0c0,2,1.18,3.28,3,3.28A3,3,0,0,0,283.56,56.79Z"/><path class="cls-4" d="M299.5,55.41v6.78h-2.72V55.85a2.53,2.53,0,0,0-5,0v6.34H289V46.59h2.72v6.12a4.34,4.34,0,0,1,3.46-1.5A4,4,0,0,1,299.5,55.41Z"/><path class="cls-4" d="M301.5,56.79c0-3.34,2.32-5.58,5.78-5.58S313,53.45,313,56.79a5.38,5.38,0,0,1-5.76,5.6C303.82,62.39,301.5,60.15,301.5,56.79Zm8.72,0a3,3,0,1,0-5.9,0,3,3,0,1,0,5.9,0Z"/><path class="cls-4" d="M314.56,56.79c0-3.34,2.32-5.58,5.78-5.58s5.76,2.24,5.76,5.58a5.38,5.38,0,0,1-5.76,5.6C316.88,62.39,314.56,60.15,314.56,56.79Zm8.72,0a3,3,0,1,0-5.9,0,3,3,0,1,0,5.9,0Z"/><path class="cls-4" d="M338.72,55.41v6.78H336V55.85a2.53,2.53,0,0,0-5,0v6.34h-2.72V51.41h2.62l0,1.36a4.39,4.39,0,0,1,3.52-1.56A4,4,0,0,1,338.72,55.41Z"/><path class="cls-4" d="M341.22,55.43h7.08v1.94h-7.08Z"/><path class="cls-4" d="M361.4,55.41v6.78h-2.72V55.85a2.53,2.53,0,0,0-5,0v6.34h-2.72V46.59h2.72v6.12a4.34,4.34,0,0,1,3.46-1.5A4,4,0,0,1,361.4,55.41Z"/><path class="cls-4" d="M380.67,51.41l-4,10.78H374l-2.36-7.44-2.36,7.44h-2.72l-4-10.78h3l2.52,7.68,2.42-7.68h2.24l2.42,7.68,2.53-7.68Z"/><path class="cls-4" d="M390.78,55.41v6.78h-2.62l-.06-1.54a3.85,3.85,0,0,1-3.28,1.74c-2.24,0-3.74-1.34-3.74-3.34s1.84-3.44,4.6-3.44a12.63,12.63,0,0,1,2.38.24v-.2c0-1.44-1-2.3-2.6-2.3a3.81,3.81,0,0,0-2.52.86l-1.18-1.6a6.56,6.56,0,0,1,4.4-1.4C388.92,51.21,390.78,52.87,390.78,55.41Zm-2.72,2.28a10.76,10.76,0,0,0-2-.22c-1.28,0-2.1.6-2.1,1.52s.58,1.46,1.68,1.46A2.55,2.55,0,0,0,388.06,57.69Z"/><path class="cls-4" d="M403.9,55.41v6.78h-2.72V55.85a2.53,2.53,0,0,0-5,0v6.34h-2.72V51.41H396l0,1.36a4.39,4.39,0,0,1,3.52-1.56A4,4,0,0,1,403.9,55.41Z"/><path class="cls-4" d="M417.38,51.41v9.76c0,3.4-2.54,5.62-6.38,5.62a8,8,0,0,1-4.8-1.36l.6-2.14a7.09,7.09,0,0,0,4.12,1.16c2.24,0,3.74-1.3,3.74-3.3v-.52a4.1,4.1,0,0,1-3.58,1.76c-2.92,0-5.16-2.26-5.16-5.64s2.24-5.54,5.16-5.54A4.1,4.1,0,0,1,414.7,53l.06-1.62Zm-2.72,5.38a3,3,0,1,0-5.92,0c0,2,1.18,3.28,3,3.28A3,3,0,0,0,414.66,56.79Z"/><path class="cls-4" d="M424.26,46.59H427l-4.78,17.6h-2.74Z"/></g></g></svg>